<svg width="20" height="20" viewBox="0 0 20 20" fill="none" xmlns="http://www.w3.org/2000/svg">
<g clip-path="url(#clip0)">
<path d="M18.607 15.0141C19.4478 13.5596 19.9361 11.874 19.9493 10.0745C19.9892 4.59186 15.5883 0.0722949 10.1337 0.000419945C4.51938 -0.0734472 -0.0396318 4.52471 0.0518914 10.1658C0.14068 15.636 4.63274 20.0405 10.0759 19.9993C11.6635 19.9873 13.161 19.5995 14.4885 18.9237L17.1256 18.9179C17.9485 18.9161 18.614 18.2443 18.6122 17.4173L18.607 15.0141Z" fill="#37A9BF"/>
<path d="M9.06445 0.0439758C3.95224 0.523155 -0.0337716 4.88799 0.0518923 10.1662C0.135095 15.2935 4.08692 19.4845 9.06441 19.9559V0.0439758H9.06445Z" fill="#52DDDC"/>
<path d="M19.5308 12.8743C19.796 11.9869 19.9421 11.0479 19.9492 10.0754C19.9567 9.0513 19.8091 8.06087 19.5287 7.12666H14.2955L17.7184 3.70373C17.2957 3.18135 16.8215 2.70264 16.3041 2.27483L12.8739 5.70502V0.426865C12.0045 0.162139 11.0853 0.0139366 10.1337 0.00139754C9.08675 -0.0123915 8.07652 0.136436 7.12625 0.424131V5.7051L3.68993 2.26878C3.17212 2.69616 2.69817 3.1751 2.27556 3.69768L5.70453 7.12666H0.467474C0.181185 8.08732 0.0347403 9.10868 0.0518887 10.1667C0.0671231 11.1063 0.212318 12.0146 0.469974 12.8743H5.70457L2.28126 16.2976C2.70438 16.8199 3.1788 17.2984 3.69633 17.7258L7.12625 14.2959V19.5732C8.06043 19.858 9.05128 20.0078 10.0759 20.0001C11.0487 19.9928 11.9873 19.8437 12.8739 19.5744V14.2959L17.4582 18.8802C18.1205 18.7269 18.6139 18.1303 18.6123 17.4182L18.6118 17.1906L14.2955 12.8743H19.5308V12.8743Z" fill="#E3E3E3"/>
<path d="M9.24242 19.9706V0.0290833C8.51215 0.0844347 7.8039 0.218536 7.12625 0.423653V5.70462L3.68993 2.2683C3.17212 2.69568 2.69817 3.17462 2.27556 3.6972L5.70453 7.12618H0.467474C0.181185 8.08684 0.0347403 9.10821 0.0518887 10.1662C0.0671231 11.1059 0.212318 12.0141 0.469974 12.8738H5.70457L2.28126 16.2971C2.70438 16.8194 3.1788 17.2979 3.69633 17.7253L7.12625 14.2954V19.5727C7.80465 19.7796 8.513 19.9149 9.24242 19.9706Z" fill="white"/>
<path d="M19.8179 8.37849H11.6211V0.132958C11.1361 0.0524896 10.6395 0.00709902 10.1337 0.00041935C9.53535 -0.00747126 8.94898 0.0379974 8.37898 0.131943V8.37845H0.180837C0.0866967 8.95903 0.0419702 9.55626 0.0518921 10.1657C0.059939 10.6602 0.104275 11.1459 0.181736 11.6206H8.37891V19.866C8.93105 19.9578 9.49805 20.0035 10.0758 19.9992C10.6018 19.9952 11.1178 19.9494 11.621 19.866V11.6206H19.8184C19.9005 11.1169 19.9454 10.6006 19.9492 10.0745C19.9534 9.49712 19.9083 8.93044 19.8179 8.37849Z" fill="#AA315E"/>
<path d="M10.0001 0C9.44798 3.90624e-05 8.9065 0.0454687 8.37896 0.132383V8.37889H0.180837C0.0866968 8.95948 0.0419702 9.5567 0.0518921 10.1662C0.059939 10.6607 0.104275 11.1464 0.181736 11.621H8.37892V19.8664C8.90689 19.9542 9.44845 19.9999 9.99997 19.9999L10.0001 0Z" fill="#DF3F7C"/>
</g>
<defs>
<clipPath id="clip0">
<rect width="20" height="20" fill="white"/>
</clipPath>
</defs>
</svg>
