<svg width="239" height="40" viewBox="0 0 239 40" fill="none" xmlns="http://www.w3.org/2000/svg">
<path d="M20 40C31.0457 40 40 31.0457 40 20C40 8.9543 31.0457 0 20 0C8.9543 0 0 8.9543 0 20C0 31.0457 8.9543 40 20 40Z" fill="#C38778"/>
<path d="M40 20C40 19.7977 39.9969 19.5959 39.991 19.3951L31.0185 10.4226L7.23914 29.2617L17.8648 39.8873C18.5663 39.9618 19.2787 40 20 40C31.0457 40 40 31.0457 40 20Z" fill="#A65D4E"/>
<path d="M11.177 33.1996L7.23914 29.2617L26.658 11.0955L29.3432 13.7807L11.177 33.1996Z" fill="#FFCD00"/>
<path d="M9.0033 31.0259L11.177 33.1996L29.3432 13.7807L27.811 12.1891L9.0033 31.0259Z" fill="#FDBA12"/>
<path d="M28.776 8.18L24.0698 5.03976L20.6023 8.50726L23.7426 13.2134L30.4857 19.9565L35.519 14.923L28.776 8.18Z" fill="#E9EDF5"/>
<path d="M25.2704 14.747L30.3031 9.71436L35.5134 14.9247L30.4808 19.9574L25.2704 14.747Z" fill="#CDD2E1"/>
<path d="M53.2922 32H47.9484V31.4609L50.8723 28.1445C51.3566 27.5859 51.6926 27.125 51.8801 26.7617C52.0676 26.3984 52.1613 26.0449 52.1613 25.7012C52.1613 25.1621 52.0031 24.7363 51.6867 24.4238C51.3703 24.1074 50.9348 23.9492 50.3801 23.9492C49.8059 23.9492 49.341 24.1328 48.9855 24.5C48.634 24.8672 48.4582 25.3438 48.4582 25.9297H47.7609C47.7609 25.4492 47.8684 25.0117 48.0832 24.6172C48.302 24.2227 48.6105 23.9141 49.009 23.6914C49.4113 23.4648 49.8684 23.3516 50.3801 23.3516C51.1613 23.3516 51.7707 23.5566 52.2082 23.9668C52.6496 24.377 52.8703 24.9355 52.8703 25.6426C52.8703 26.041 52.7453 26.4766 52.4953 26.9492C52.2492 27.4219 51.8137 28.0117 51.1887 28.7188L48.8098 31.4082H53.2922V32ZM60.3492 28.4434C60.3492 29.6465 60.1285 30.5605 59.6871 31.1855C59.2457 31.8066 58.5953 32.1172 57.7359 32.1172C56.8922 32.1172 56.2457 31.8125 55.7965 31.2031C55.3473 30.5898 55.1168 29.6992 55.1051 28.5312V27.002C55.1051 25.8027 55.3277 24.8945 55.773 24.2773C56.2184 23.6602 56.8688 23.3516 57.7242 23.3516C58.568 23.3516 59.2125 23.6504 59.6578 24.248C60.1031 24.8418 60.3336 25.7188 60.3492 26.8789V28.4434ZM59.6461 26.9141C59.6461 25.9375 59.4859 25.1992 59.1656 24.6992C58.8492 24.1992 58.3688 23.9492 57.7242 23.9492C57.0914 23.9492 56.6148 24.1934 56.2945 24.6816C55.9742 25.1699 55.8102 25.8906 55.8023 26.8438V28.5195C55.8023 29.4922 55.9664 30.2363 56.2945 30.752C56.6266 31.2676 57.107 31.5254 57.7359 31.5254C58.3609 31.5254 58.8336 31.2734 59.1539 30.7695C59.4781 30.2656 59.6422 29.5273 59.6461 28.5547V26.9141ZM68.1 30.9922L69.9516 25.6602H70.7074L68.0004 33.0781L67.8598 33.4062C67.5121 34.1758 66.975 34.5605 66.2484 34.5605C66.0805 34.5605 65.9008 34.5332 65.7094 34.4785L65.7035 33.8984L66.0668 33.9336C66.4105 33.9336 66.6879 33.8477 66.8988 33.6758C67.1137 33.5078 67.2953 33.2168 67.4438 32.8027L67.7543 31.9473L65.3637 25.6602H66.1313L68.1 30.9922ZM74.7703 32.1172C74.2313 32.1172 73.743 31.9844 73.3055 31.7188C72.8719 31.4531 72.534 31.084 72.2918 30.6113C72.0496 30.1348 71.9285 29.6016 71.9285 29.0117V28.7598C71.9285 28.1504 72.0457 27.6016 72.2801 27.1133C72.5184 26.625 72.8484 26.2422 73.2703 25.9648C73.6922 25.6836 74.1492 25.543 74.6414 25.543C75.4109 25.543 76.0203 25.8066 76.4695 26.334C76.9227 26.8574 77.1492 27.5742 77.1492 28.4844V28.877H72.6258V29.0117C72.6258 29.7305 72.8309 30.3301 73.241 30.8105C73.6551 31.2871 74.1746 31.5254 74.7996 31.5254C75.1746 31.5254 75.5047 31.457 75.7898 31.3203C76.0789 31.1836 76.3406 30.9648 76.575 30.6641L77.0145 30.998C76.4988 31.7441 75.7508 32.1172 74.7703 32.1172ZM74.6414 26.1406C74.1141 26.1406 73.6688 26.334 73.3055 26.7207C72.9461 27.1074 72.7273 27.627 72.6492 28.2793H76.452V28.2031C76.4324 27.5938 76.2586 27.0977 75.9305 26.7148C75.6023 26.332 75.1727 26.1406 74.6414 26.1406ZM83.1164 32C83.0461 31.8008 83.0012 31.5059 82.9816 31.1152C82.7355 31.4355 82.4211 31.6836 82.0383 31.8594C81.6594 32.0312 81.257 32.1172 80.8313 32.1172C80.2219 32.1172 79.7277 31.9473 79.3488 31.6074C78.9738 31.2676 78.7863 30.8379 78.7863 30.3184C78.7863 29.7012 79.0422 29.2129 79.5539 28.8535C80.0695 28.4941 80.7863 28.3145 81.7043 28.3145H82.9758V27.5938C82.9758 27.1406 82.8352 26.7852 82.5539 26.5273C82.2766 26.2656 81.8703 26.1348 81.3352 26.1348C80.8469 26.1348 80.4426 26.2598 80.1223 26.5098C79.802 26.7598 79.6418 27.0605 79.6418 27.4121L78.9387 27.4062C78.9387 26.9023 79.173 26.4668 79.6418 26.0996C80.1105 25.7285 80.6867 25.543 81.3703 25.543C82.0773 25.543 82.634 25.7207 83.0402 26.0762C83.4504 26.4277 83.6613 26.9199 83.673 27.5527V30.5527C83.673 31.166 83.7375 31.625 83.8664 31.9297V32H83.1164ZM80.9133 31.4961C81.382 31.4961 81.8 31.3828 82.1672 31.1562C82.5383 30.9297 82.8078 30.627 82.9758 30.248V28.8535H81.7219C81.0227 28.8613 80.4758 28.9902 80.0813 29.2402C79.6867 29.4863 79.4895 29.8262 79.4895 30.2598C79.4895 30.6152 79.6203 30.9102 79.882 31.1445C80.1477 31.3789 80.4914 31.4961 80.9133 31.4961ZM89.0777 26.2578C88.9293 26.2305 88.7711 26.2168 88.6031 26.2168C88.1656 26.2168 87.7945 26.3398 87.4898 26.5859C87.1891 26.8281 86.9742 27.1816 86.8453 27.6465V32H86.148V25.6602H86.8336L86.8453 26.668C87.2164 25.918 87.8121 25.543 88.6324 25.543C88.8277 25.543 88.982 25.5684 89.0953 25.6191L89.0777 26.2578ZM94.5879 30.3887C94.5879 30.041 94.4473 29.7617 94.166 29.5508C93.8887 29.3398 93.4688 29.1758 92.9063 29.0586C92.3438 28.9375 91.9063 28.8008 91.5938 28.6484C91.2852 28.4922 91.0547 28.3027 90.9023 28.0801C90.7539 27.8574 90.6797 27.5879 90.6797 27.2715C90.6797 26.7715 90.8887 26.3594 91.3066 26.0352C91.7246 25.707 92.2598 25.543 92.9121 25.543C93.6191 25.543 94.1856 25.7188 94.6113 26.0703C95.041 26.418 95.2559 26.873 95.2559 27.4355H94.5527C94.5527 27.0645 94.3965 26.7559 94.084 26.5098C93.7754 26.2637 93.3848 26.1406 92.9121 26.1406C92.4512 26.1406 92.0801 26.2441 91.7988 26.4512C91.5215 26.6543 91.3828 26.9199 91.3828 27.248C91.3828 27.5645 91.4981 27.8105 91.7285 27.9863C91.9629 28.1582 92.3867 28.3164 93 28.4609C93.6172 28.6055 94.0781 28.7598 94.3828 28.9238C94.6914 29.0879 94.9199 29.2852 95.0684 29.5156C95.2168 29.7461 95.291 30.0254 95.291 30.3535C95.291 30.8887 95.0742 31.3164 94.6406 31.6367C94.2109 31.957 93.6484 32.1172 92.9531 32.1172C92.2148 32.1172 91.6152 31.9395 91.1543 31.584C90.6973 31.2246 90.4688 30.7715 90.4688 30.2246H91.1719C91.1992 30.6348 91.3711 30.9551 91.6875 31.1855C92.0078 31.4121 92.4297 31.5254 92.9531 31.5254C93.4414 31.5254 93.8359 31.418 94.1367 31.2031C94.4375 30.9883 94.5879 30.7168 94.5879 30.3887ZM106.095 28.8945C106.095 29.8828 105.876 30.668 105.438 31.25C105.001 31.8281 104.413 32.1172 103.675 32.1172C102.792 32.1172 102.124 31.7891 101.671 31.1328L101.641 32H100.985V23H101.682V26.5801C102.128 25.8887 102.788 25.543 103.663 25.543C104.413 25.543 105.005 25.8301 105.438 26.4043C105.876 26.9746 106.095 27.7695 106.095 28.7891V28.8945ZM105.391 28.7715C105.391 27.9355 105.229 27.291 104.905 26.8379C104.581 26.3809 104.124 26.1523 103.534 26.1523C103.085 26.1523 102.704 26.2637 102.391 26.4863C102.079 26.7051 101.843 27.0273 101.682 27.4531V30.3125C102.034 31.1094 102.655 31.5078 103.546 31.5078C104.124 31.5078 104.575 31.2793 104.899 30.8223C105.227 30.3652 105.391 29.6816 105.391 28.7715ZM112.325 31.1973C111.904 31.8105 111.23 32.1172 110.304 32.1172C109.628 32.1172 109.114 31.9219 108.763 31.5312C108.411 31.1367 108.232 30.5547 108.224 29.7852V25.6602H108.921V29.6973C108.921 30.9043 109.409 31.5078 110.386 31.5078C111.402 31.5078 112.044 31.0879 112.314 30.248V25.6602H113.017V32H112.337L112.325 31.1973ZM116.23 32H115.527V25.6602H116.23V32ZM115.404 23.8262C115.404 23.6934 115.447 23.582 115.533 23.4922C115.619 23.3984 115.736 23.3516 115.884 23.3516C116.033 23.3516 116.15 23.3984 116.236 23.4922C116.326 23.582 116.371 23.6934 116.371 23.8262C116.371 23.959 116.326 24.0703 116.236 24.1602C116.15 24.25 116.033 24.2949 115.884 24.2949C115.736 24.2949 115.619 24.25 115.533 24.1602C115.447 24.0703 115.404 23.959 115.404 23.8262ZM119.525 32H118.822V23H119.525V32ZM121.754 28.7715C121.754 27.7871 121.973 27.0039 122.411 26.4219C122.852 25.8359 123.45 25.543 124.204 25.543C125.059 25.543 125.711 25.8809 126.161 26.5566V23H126.858V32H126.202L126.172 31.1562C125.723 31.7969 125.063 32.1172 124.192 32.1172C123.461 32.1172 122.871 31.8242 122.422 31.2383C121.977 30.6484 121.754 29.8535 121.754 28.8535V28.7715ZM122.463 28.8945C122.463 29.7031 122.625 30.3418 122.95 30.8105C123.274 31.2754 123.731 31.5078 124.321 31.5078C125.184 31.5078 125.797 31.127 126.161 30.3652V27.3887C125.797 26.5645 125.188 26.1523 124.332 26.1523C123.743 26.1523 123.284 26.3848 122.955 26.8496C122.627 27.3105 122.463 27.9922 122.463 28.8945ZM130.089 32H129.386V25.6602H130.089V32ZM129.263 23.8262C129.263 23.6934 129.305 23.582 129.391 23.4922C129.477 23.3984 129.595 23.3516 129.743 23.3516C129.891 23.3516 130.009 23.3984 130.095 23.4922C130.184 23.582 130.229 23.6934 130.229 23.8262C130.229 23.959 130.184 24.0703 130.095 24.1602C130.009 24.25 129.891 24.2949 129.743 24.2949C129.595 24.2949 129.477 24.25 129.391 24.1602C129.305 24.0703 129.263 23.959 129.263 23.8262ZM133.267 25.6602L133.29 26.7441C133.529 26.3535 133.825 26.0566 134.181 25.8535C134.536 25.6465 134.929 25.543 135.359 25.543C136.038 25.543 136.544 25.7344 136.876 26.1172C137.208 26.5 137.376 27.0742 137.38 27.8398V32H136.683V27.834C136.679 27.2676 136.558 26.8457 136.32 26.5684C136.085 26.291 135.708 26.1523 135.189 26.1523C134.755 26.1523 134.37 26.2891 134.034 26.5625C133.702 26.832 133.456 27.1973 133.296 27.6582V32H132.599V25.6602H133.267ZM139.515 28.7715C139.515 27.7793 139.734 26.9941 140.171 26.416C140.613 25.834 141.211 25.543 141.964 25.543C142.828 25.543 143.484 25.8867 143.933 26.5742L143.968 25.6602H144.625V31.8711C144.625 32.6875 144.396 33.334 143.939 33.8105C143.482 34.2871 142.863 34.5254 142.082 34.5254C141.64 34.5254 141.218 34.4258 140.816 34.2266C140.418 34.0312 140.103 33.7695 139.873 33.4414L140.265 33.0195C140.761 33.6289 141.351 33.9336 142.035 33.9336C142.621 33.9336 143.078 33.7598 143.406 33.4121C143.734 33.0684 143.904 32.5898 143.916 31.9766V31.1797C143.466 31.8047 142.812 32.1172 141.953 32.1172C141.218 32.1172 140.629 31.8242 140.183 31.2383C139.738 30.6523 139.515 29.8613 139.515 28.8652V28.7715ZM140.224 28.8945C140.224 29.7031 140.386 30.3418 140.711 30.8105C141.035 31.2754 141.492 31.5078 142.082 31.5078C142.945 31.5078 143.556 31.1211 143.916 30.3477V27.4004C143.752 26.9941 143.515 26.6855 143.207 26.4746C142.898 26.2598 142.527 26.1523 142.093 26.1523C141.504 26.1523 141.045 26.3848 140.716 26.8496C140.388 27.3105 140.224 27.9922 140.224 28.8945ZM151.075 32V26.2344H150.026V25.6602H151.075V24.8926C151.075 24.2441 151.239 23.7461 151.567 23.3984C151.899 23.0508 152.36 22.877 152.95 22.877C153.215 22.877 153.463 22.9102 153.694 22.9766L153.641 23.5625C153.446 23.5156 153.233 23.4922 153.002 23.4922C152.616 23.4922 152.315 23.6133 152.1 23.8555C151.885 24.0938 151.778 24.4336 151.778 24.875V25.6602H153.289V26.2344H151.778V32H151.075ZM154.757 28.7363C154.757 28.127 154.874 27.5781 155.108 27.0898C155.346 26.6016 155.68 26.2227 156.11 25.9531C156.544 25.6797 157.034 25.543 157.581 25.543C158.425 25.543 159.108 25.8398 159.632 26.4336C160.155 27.0234 160.417 27.8066 160.417 28.7832V28.9297C160.417 29.543 160.298 30.0957 160.059 30.5879C159.825 31.0762 159.493 31.4531 159.063 31.7188C158.634 31.9844 158.143 32.1172 157.593 32.1172C156.753 32.1172 156.069 31.8223 155.542 31.2324C155.018 30.6387 154.757 29.8535 154.757 28.877V28.7363ZM155.46 28.9297C155.46 29.6875 155.655 30.3105 156.046 30.7988C156.44 31.2832 156.956 31.5254 157.593 31.5254C158.225 31.5254 158.737 31.2832 159.128 30.7988C159.522 30.3105 159.72 29.668 159.72 28.8711V28.7363C159.72 28.252 159.63 27.8086 159.45 27.4062C159.27 27.0039 159.018 26.6934 158.694 26.4746C158.37 26.252 157.999 26.1406 157.581 26.1406C156.956 26.1406 156.446 26.3867 156.052 26.8789C155.657 27.3672 155.46 28.0078 155.46 28.8008V28.9297ZM165.4 26.2578C165.251 26.2305 165.093 26.2168 164.925 26.2168C164.488 26.2168 164.116 26.3398 163.812 26.5859C163.511 26.8281 163.296 27.1816 163.167 27.6465V32H162.47V25.6602H163.155L163.167 26.668C163.538 25.918 164.134 25.543 164.954 25.543C165.15 25.543 165.304 25.5684 165.417 25.6191L165.4 26.2578ZM172.641 30.9922L174.492 25.6602H175.248L172.541 33.0781L172.4 33.4062C172.053 34.1758 171.516 34.5605 170.789 34.5605C170.621 34.5605 170.441 34.5332 170.25 34.4785L170.244 33.8984L170.607 33.9336C170.951 33.9336 171.229 33.8477 171.439 33.6758C171.654 33.5078 171.836 33.2168 171.984 32.8027L172.295 31.9473L169.904 25.6602H170.672L172.641 30.9922ZM176.457 28.7363C176.457 28.127 176.575 27.5781 176.809 27.0898C177.047 26.6016 177.381 26.2227 177.811 25.9531C178.245 25.6797 178.735 25.543 179.282 25.543C180.125 25.543 180.809 25.8398 181.332 26.4336C181.856 27.0234 182.118 27.8066 182.118 28.7832V28.9297C182.118 29.543 181.998 30.0957 181.76 30.5879C181.526 31.0762 181.194 31.4531 180.764 31.7188C180.334 31.9844 179.844 32.1172 179.293 32.1172C178.454 32.1172 177.77 31.8223 177.243 31.2324C176.719 30.6387 176.457 29.8535 176.457 28.877V28.7363ZM177.161 28.9297C177.161 29.6875 177.356 30.3105 177.746 30.7988C178.141 31.2832 178.657 31.5254 179.293 31.5254C179.926 31.5254 180.438 31.2832 180.829 30.7988C181.223 30.3105 181.42 29.668 181.42 28.8711V28.7363C181.42 28.252 181.33 27.8086 181.151 27.4062C180.971 27.0039 180.719 26.6934 180.395 26.4746C180.071 26.252 179.7 26.1406 179.282 26.1406C178.657 26.1406 178.147 26.3867 177.752 26.8789C177.358 27.3672 177.161 28.0078 177.161 28.8008V28.9297ZM188.249 31.1973C187.827 31.8105 187.153 32.1172 186.227 32.1172C185.552 32.1172 185.038 31.9219 184.686 31.5312C184.335 31.1367 184.155 30.5547 184.147 29.7852V25.6602H184.845V29.6973C184.845 30.9043 185.333 31.5078 186.309 31.5078C187.325 31.5078 187.968 31.0879 188.237 30.248V25.6602H188.94V32H188.261L188.249 31.1973Z" fill="#7E7E7E"/>
<path d="M47.146 17L48.9917 6.33594L52.3828 6.34326C53.7207 6.34814 54.7192 6.60205 55.3784 7.10498C56.0376 7.60791 56.3379 8.31348 56.2793 9.22168C56.2061 10.3447 55.5908 11.1406 54.4336 11.6094C54.8486 11.7559 55.1709 12.022 55.4004 12.4077C55.6348 12.7886 55.7349 13.2476 55.7007 13.7847C55.6323 14.8149 55.2246 15.6084 54.4775 16.165C53.7354 16.7217 52.7173 17 51.4233 17H47.146ZM50.4419 12.4663L49.9951 15.0225L51.4966 15.0298C51.9653 15.0298 52.356 14.915 52.6685 14.6855C52.981 14.4512 53.1665 14.1411 53.2251 13.7554C53.3618 12.9399 53.0493 12.5127 52.2876 12.4736L50.4419 12.4663ZM50.7275 10.7817L51.9067 10.7891C52.9956 10.7646 53.606 10.3472 53.7378 9.53662C53.855 8.73584 53.4399 8.33301 52.4927 8.32812L51.1597 8.3208L50.7275 10.7817ZM66.8232 12.481H62.9048L62.458 15.0225H67.0942L66.75 17H59.6089L61.4546 6.33594H68.6104L68.2661 8.3208H63.6226L63.2271 10.5693H67.1528L66.8232 12.481ZM75.2285 17.1465C74.1201 17.1221 73.2314 16.7559 72.5625 16.0479C71.8936 15.3398 71.5151 14.3926 71.4272 13.2061C71.3784 12.6201 71.4248 11.9316 71.5664 11.1406C71.708 10.3447 71.9595 9.6123 72.3208 8.94336C72.6821 8.27441 73.1338 7.71777 73.6758 7.27344C74.584 6.52637 75.6289 6.16504 76.8105 6.18945C77.5381 6.2041 78.1729 6.37256 78.7148 6.69482C79.2617 7.01221 79.6987 7.47119 80.0259 8.07178C80.353 8.67236 80.5435 9.35596 80.5972 10.1226C80.6362 10.6646 80.6021 11.2822 80.4946 11.9756C80.3921 12.6641 80.1992 13.3232 79.916 13.9531C79.6377 14.5781 79.2764 15.1299 78.832 15.6084C78.3877 16.0869 77.8628 16.4678 77.2573 16.751C76.6567 17.0293 75.9805 17.1611 75.2285 17.1465ZM78.085 10.1006C78.0361 8.87988 77.5625 8.24512 76.6641 8.19629C75.9707 8.16211 75.397 8.43799 74.9429 9.02393C74.4888 9.60498 74.1885 10.4644 74.042 11.6021C73.9492 12.3052 73.915 12.8496 73.9395 13.2354C73.9883 14.4756 74.4668 15.1128 75.375 15.147C75.9707 15.1763 76.4834 14.9639 76.9131 14.5098C77.3428 14.0508 77.6528 13.3867 77.8433 12.5176C78.0337 11.6436 78.1143 10.8379 78.085 10.1006ZM89.1636 13.3599H84.8789L85.2085 11.4482H89.4932L89.1636 13.3599ZM102.505 13.3672C102.442 14.1143 102.195 14.7783 101.766 15.3594C101.341 15.9404 100.779 16.3872 100.081 16.6997C99.3877 17.0122 98.6357 17.1611 97.8252 17.1465C96.7119 17.1221 95.8354 16.7632 95.1958 16.0698C94.5562 15.3765 94.207 14.4365 94.1484 13.25C94.1045 12.459 94.1899 11.5972 94.4048 10.6646C94.6245 9.73193 94.9785 8.92139 95.4668 8.23291C95.96 7.53955 96.5386 7.02197 97.2026 6.68018C97.8716 6.3335 98.6016 6.16748 99.3926 6.18213C100.555 6.20166 101.473 6.55078 102.146 7.22949C102.825 7.9082 103.194 8.84326 103.252 10.0347L100.755 10.0273C100.765 9.37793 100.647 8.91406 100.403 8.63574C100.159 8.35742 99.7734 8.2085 99.2461 8.18896C97.9277 8.14502 97.1245 9.17041 96.8364 11.2651C96.7046 12.2124 96.6387 12.8887 96.6387 13.2939C96.6143 14.4951 97.0586 15.1128 97.9717 15.147C98.5625 15.1665 99.0337 15.0225 99.3853 14.7148C99.7368 14.4023 99.9614 13.9629 100.059 13.3965L102.505 13.3672ZM110.596 17.1465C109.487 17.1221 108.599 16.7559 107.93 16.0479C107.261 15.3398 106.882 14.3926 106.794 13.2061C106.746 12.6201 106.792 11.9316 106.934 11.1406C107.075 10.3447 107.327 9.6123 107.688 8.94336C108.049 8.27441 108.501 7.71777 109.043 7.27344C109.951 6.52637 110.996 6.16504 112.178 6.18945C112.905 6.2041 113.54 6.37256 114.082 6.69482C114.629 7.01221 115.066 7.47119 115.393 8.07178C115.72 8.67236 115.911 9.35596 115.964 10.1226C116.003 10.6646 115.969 11.2822 115.862 11.9756C115.759 12.6641 115.566 13.3232 115.283 13.9531C115.005 14.5781 114.644 15.1299 114.199 15.6084C113.755 16.0869 113.23 16.4678 112.625 16.751C112.024 17.0293 111.348 17.1611 110.596 17.1465ZM113.452 10.1006C113.403 8.87988 112.93 8.24512 112.031 8.19629C111.338 8.16211 110.764 8.43799 110.31 9.02393C109.856 9.60498 109.556 10.4644 109.409 11.6021C109.316 12.3052 109.282 12.8496 109.307 13.2354C109.355 14.4756 109.834 15.1128 110.742 15.147C111.338 15.1763 111.851 14.9639 112.28 14.5098C112.71 14.0508 113.02 13.3867 113.21 12.5176C113.401 11.6436 113.481 10.8379 113.452 10.1006ZM127.966 17H125.542L122.993 10.269L121.821 17H119.316L121.162 6.33594H123.608L126.149 13.0669L127.314 6.33594H129.819L127.966 17ZM138.473 14.1143C138.581 13.5625 138.283 13.1353 137.58 12.8325L136.378 12.3345C134.694 11.5776 133.893 10.5474 133.976 9.24365C134.01 8.64795 134.215 8.11816 134.591 7.6543C134.967 7.18555 135.487 6.82178 136.151 6.56299C136.815 6.3042 137.541 6.17969 138.327 6.18945C139.381 6.20898 140.229 6.5166 140.868 7.1123C141.513 7.70801 141.83 8.50635 141.82 9.50732H139.33C139.345 9.09717 139.257 8.77002 139.066 8.52588C138.881 8.27686 138.573 8.14746 138.144 8.1377C137.724 8.12793 137.353 8.22559 137.03 8.43066C136.708 8.63574 136.518 8.91162 136.459 9.2583C136.366 9.74658 136.728 10.147 137.543 10.4595C138.363 10.772 138.959 11.0405 139.33 11.2651C140.497 11.9634 141.044 12.9058 140.971 14.0923C140.932 14.7075 140.734 15.2471 140.377 15.7109C140.021 16.1748 139.525 16.5337 138.891 16.7876C138.261 17.0415 137.553 17.1636 136.767 17.1538C136.19 17.144 135.656 17.0537 135.163 16.8828C134.669 16.7119 134.247 16.4629 133.896 16.1357C133.183 15.4766 132.841 14.6099 132.87 13.5356L135.382 13.543C135.353 14.0898 135.458 14.5049 135.697 14.7881C135.937 15.0664 136.339 15.2056 136.906 15.2056C137.326 15.2056 137.675 15.1104 137.953 14.9199C138.236 14.7246 138.41 14.4561 138.473 14.1143ZM154.437 8.3208H151.332L149.83 17H147.318L148.827 8.3208H145.772L146.124 6.33594H154.781L154.437 8.3208ZM161.597 13.2354H160.206L159.546 17H157.042L158.887 6.33594L162.652 6.34326C163.858 6.34326 164.786 6.62646 165.435 7.19287C166.089 7.75439 166.382 8.52344 166.314 9.5C166.26 10.2715 166.038 10.9111 165.647 11.4189C165.257 11.9219 164.71 12.3198 164.007 12.6128L165.442 16.8755V17H162.769L161.597 13.2354ZM160.542 11.2505L162.007 11.2651C162.408 11.2651 162.754 11.1675 163.047 10.9722C163.345 10.7769 163.558 10.5107 163.685 10.1738C163.812 9.83203 163.848 9.50244 163.794 9.18506C163.697 8.64307 163.35 8.35742 162.754 8.32812L161.055 8.3208L160.542 11.2505ZM179.612 6.33594L178.425 13.2939C178.254 14.5 177.756 15.4497 176.931 16.1431C176.111 16.8364 175.076 17.1733 173.826 17.1538C173.049 17.1392 172.375 16.9731 171.804 16.6558C171.233 16.3335 170.811 15.8818 170.537 15.3008C170.269 14.7148 170.178 14.0483 170.266 13.3013L171.453 6.33594H173.972L172.793 13.3086C172.764 13.5527 172.759 13.7847 172.778 14.0044C172.803 14.3657 172.915 14.6465 173.115 14.8467C173.32 15.0469 173.608 15.1543 173.979 15.1689C175.054 15.2031 175.701 14.5806 175.92 13.3013L177.107 6.33594H179.612ZM191.284 13.3672C191.22 14.1143 190.974 14.7783 190.544 15.3594C190.119 15.9404 189.558 16.3872 188.859 16.6997C188.166 17.0122 187.414 17.1611 186.604 17.1465C185.49 17.1221 184.614 16.7632 183.974 16.0698C183.334 15.3765 182.985 14.4365 182.927 13.25C182.883 12.459 182.968 11.5972 183.183 10.6646C183.403 9.73193 183.757 8.92139 184.245 8.23291C184.738 7.53955 185.317 7.02197 185.981 6.68018C186.65 6.3335 187.38 6.16748 188.171 6.18213C189.333 6.20166 190.251 6.55078 190.925 7.22949C191.604 7.9082 191.972 8.84326 192.031 10.0347L189.533 10.0273C189.543 9.37793 189.426 8.91406 189.182 8.63574C188.938 8.35742 188.552 8.2085 188.024 8.18896C186.706 8.14502 185.903 9.17041 185.615 11.2651C185.483 12.2124 185.417 12.8887 185.417 13.2939C185.393 14.4951 185.837 15.1128 186.75 15.147C187.341 15.1665 187.812 15.0225 188.164 14.7148C188.515 14.4023 188.74 13.9629 188.837 13.3965L191.284 13.3672ZM204.391 8.3208H201.286L199.784 17H197.272L198.781 8.3208H195.727L196.078 6.33594H204.735L204.391 8.3208ZM209.669 17H207.164L209.017 6.33594H211.515L209.669 17ZM218.865 17.1465C217.757 17.1221 216.868 16.7559 216.199 16.0479C215.53 15.3398 215.152 14.3926 215.064 13.2061C215.015 12.6201 215.062 11.9316 215.203 11.1406C215.345 10.3447 215.596 9.6123 215.958 8.94336C216.319 8.27441 216.771 7.71777 217.312 7.27344C218.221 6.52637 219.266 6.16504 220.447 6.18945C221.175 6.2041 221.81 6.37256 222.352 6.69482C222.898 7.01221 223.335 7.47119 223.663 8.07178C223.99 8.67236 224.18 9.35596 224.234 10.1226C224.273 10.6646 224.239 11.2822 224.131 11.9756C224.029 12.6641 223.836 13.3232 223.553 13.9531C223.274 14.5781 222.913 15.1299 222.469 15.6084C222.024 16.0869 221.5 16.4678 220.894 16.751C220.293 17.0293 219.617 17.1611 218.865 17.1465ZM221.722 10.1006C221.673 8.87988 221.199 8.24512 220.301 8.19629C219.607 8.16211 219.034 8.43799 218.58 9.02393C218.125 9.60498 217.825 10.4644 217.679 11.6021C217.586 12.3052 217.552 12.8496 217.576 13.2354C217.625 14.4756 218.104 15.1128 219.012 15.147C219.607 15.1763 220.12 14.9639 220.55 14.5098C220.979 14.0508 221.29 13.3867 221.48 12.5176C221.67 11.6436 221.751 10.8379 221.722 10.1006ZM236.235 17H233.811L231.262 10.269L230.09 17H227.585L229.431 6.33594H231.877L234.419 13.0669L235.583 6.33594H238.088L236.235 17Z" fill="#DDA643"/>
</svg>
