<svg width="200" height="40" viewBox="0 0 200 40" fill="none" xmlns="http://www.w3.org/2000/svg">
<path d="M20 40C31.0457 40 40 31.0457 40 20C40 8.9543 31.0457 0 20 0C8.9543 0 0 8.9543 0 20C0 31.0457 8.9543 40 20 40Z" fill="#C38778"/>
<path d="M40 20C40 19.7977 39.9969 19.5959 39.991 19.3951L31.0185 10.4226L7.23914 29.2617L17.8648 39.8873C18.5663 39.9618 19.2787 40 20 40C31.0457 40 40 31.0457 40 20Z" fill="#A65D4E"/>
<path d="M11.177 33.1996L7.23914 29.2617L26.658 11.0955L29.3432 13.7807L11.177 33.1996Z" fill="#FFCD00"/>
<path d="M9.0033 31.0259L11.177 33.1996L29.3432 13.7807L27.811 12.1891L9.0033 31.0259Z" fill="#FDBA12"/>
<path d="M28.776 8.18L24.0698 5.03976L20.6023 8.50726L23.7426 13.2134L30.4857 19.9565L35.519 14.923L28.776 8.18Z" fill="#E9EDF5"/>
<path d="M25.2704 14.747L30.3031 9.71436L35.5134 14.9247L30.4808 19.9574L25.2704 14.747Z" fill="#CDD2E1"/>
<path d="M54.6332 30.9863C54.3832 31.3418 53.9906 31.6191 53.4555 31.8184C52.9242 32.0176 52.3285 32.1172 51.6684 32.1172C51.0004 32.1172 50.4066 31.957 49.8871 31.6367C49.3676 31.3164 48.9652 30.8633 48.6801 30.2773C48.3949 29.6914 48.2504 29.0195 48.2465 28.2617V27.1836C48.2465 26 48.5453 25.0664 49.143 24.3828C49.7406 23.6953 50.5434 23.3516 51.5512 23.3516C52.4301 23.3516 53.1371 23.5762 53.6723 24.0254C54.2074 24.4707 54.5258 25.0859 54.6273 25.8711H53.9066C53.8012 25.2461 53.5453 24.7734 53.1391 24.4531C52.7367 24.1289 52.2094 23.9668 51.557 23.9668C50.7602 23.9668 50.1293 24.25 49.6645 24.8164C49.1996 25.3828 48.9672 26.1816 48.9672 27.2129V28.2207C48.9672 28.8691 49.0766 29.4434 49.2953 29.9434C49.518 30.4395 49.8344 30.8242 50.2445 31.0977C50.6586 31.3711 51.1332 31.5078 51.6684 31.5078C52.2895 31.5078 52.8227 31.4102 53.268 31.2148C53.557 31.0859 53.7719 30.9355 53.9125 30.7637V28.5605H51.6215V27.9512H54.6332V30.9863ZM60.0437 26.2578C59.8953 26.2305 59.7371 26.2168 59.5691 26.2168C59.1316 26.2168 58.7605 26.3398 58.4559 26.5859C58.1551 26.8281 57.9402 27.1816 57.8113 27.6465V32H57.1141V25.6602H57.7996L57.8113 26.668C58.1824 25.918 58.7781 25.543 59.5984 25.543C59.7937 25.543 59.948 25.5684 60.0613 25.6191L60.0437 26.2578ZM65.5246 32C65.4543 31.8008 65.4094 31.5059 65.3898 31.1152C65.1437 31.4355 64.8293 31.6836 64.4465 31.8594C64.0676 32.0312 63.6652 32.1172 63.2395 32.1172C62.6301 32.1172 62.1359 31.9473 61.757 31.6074C61.382 31.2676 61.1945 30.8379 61.1945 30.3184C61.1945 29.7012 61.4504 29.2129 61.9621 28.8535C62.4777 28.4941 63.1945 28.3145 64.1125 28.3145H65.384V27.5938C65.384 27.1406 65.2434 26.7852 64.9621 26.5273C64.6848 26.2656 64.2785 26.1348 63.7434 26.1348C63.2551 26.1348 62.8508 26.2598 62.5305 26.5098C62.2102 26.7598 62.05 27.0605 62.05 27.4121L61.3469 27.4062C61.3469 26.9023 61.5812 26.4668 62.05 26.0996C62.5187 25.7285 63.0949 25.543 63.7785 25.543C64.4855 25.543 65.0422 25.7207 65.4484 26.0762C65.8586 26.4277 66.0695 26.9199 66.0812 27.5527V30.5527C66.0812 31.166 66.1457 31.625 66.2746 31.9297V32H65.5246ZM63.3215 31.4961C63.7902 31.4961 64.2082 31.3828 64.5754 31.1562C64.9465 30.9297 65.216 30.627 65.384 30.248V28.8535H64.1301C63.4309 28.8613 62.884 28.9902 62.4895 29.2402C62.0949 29.4863 61.8977 29.8262 61.8977 30.2598C61.8977 30.6152 62.0285 30.9102 62.2902 31.1445C62.5559 31.3789 62.8996 31.4961 63.3215 31.4961ZM68.275 28.7715C68.275 27.7871 68.4937 27.0039 68.9312 26.4219C69.3727 25.8359 69.9703 25.543 70.7242 25.543C71.5797 25.543 72.232 25.8809 72.6812 26.5566V23H73.3785V32H72.7223L72.693 31.1562C72.2437 31.7969 71.5836 32.1172 70.7125 32.1172C69.982 32.1172 69.3922 31.8242 68.943 31.2383C68.4977 30.6484 68.275 29.8535 68.275 28.8535V28.7715ZM68.984 28.8945C68.984 29.7031 69.1461 30.3418 69.4703 30.8105C69.7945 31.2754 70.2516 31.5078 70.8414 31.5078C71.7047 31.5078 72.318 31.127 72.6812 30.3652V27.3887C72.318 26.5645 71.7086 26.1523 70.8531 26.1523C70.2633 26.1523 69.8043 26.3848 69.4762 26.8496C69.148 27.3105 68.984 27.9922 68.984 28.8945ZM76.6094 32H75.9062V25.6602H76.6094V32ZM75.7832 23.8262C75.7832 23.6934 75.8262 23.582 75.9121 23.4922C75.998 23.3984 76.1152 23.3516 76.2637 23.3516C76.4121 23.3516 76.5293 23.3984 76.6152 23.4922C76.7051 23.582 76.75 23.6934 76.75 23.8262C76.75 23.959 76.7051 24.0703 76.6152 24.1602C76.5293 24.25 76.4121 24.2949 76.2637 24.2949C76.1152 24.2949 75.998 24.25 75.9121 24.1602C75.8262 24.0703 75.7832 23.959 75.7832 23.8262ZM79.7582 25.6602L79.7816 26.6914C80.016 26.3086 80.309 26.0215 80.6605 25.8301C81.0121 25.6387 81.4027 25.543 81.8324 25.543C82.8324 25.543 83.4672 25.9531 83.7367 26.7734C83.9633 26.3789 84.266 26.0762 84.6449 25.8652C85.0238 25.6504 85.4418 25.543 85.8988 25.543C87.2582 25.543 87.9516 26.2852 87.9789 27.7695V32H87.2758V27.8223C87.2719 27.2559 87.1488 26.8359 86.9066 26.5625C86.6684 26.2891 86.2777 26.1523 85.7348 26.1523C85.2309 26.1602 84.8051 26.3242 84.4574 26.6445C84.1098 26.9609 83.9164 27.3477 83.8773 27.8047V32H83.1742V27.7695C83.1703 27.2266 83.0414 26.8223 82.7875 26.5566C82.5375 26.2871 82.1508 26.1523 81.6273 26.1523C81.1859 26.1523 80.807 26.2793 80.4906 26.5332C80.1742 26.7832 79.9398 27.1562 79.7875 27.6523V32H79.0844V25.6602H79.7582ZM89.9734 28.7363C89.9734 28.127 90.0906 27.5781 90.325 27.0898C90.5633 26.6016 90.8973 26.2227 91.327 25.9531C91.7605 25.6797 92.2508 25.543 92.7977 25.543C93.6414 25.543 94.325 25.8398 94.8484 26.4336C95.3719 27.0234 95.6336 27.8066 95.6336 28.7832V28.9297C95.6336 29.543 95.5145 30.0957 95.2762 30.5879C95.0418 31.0762 94.7098 31.4531 94.2801 31.7188C93.8504 31.9844 93.3602 32.1172 92.8094 32.1172C91.9695 32.1172 91.2859 31.8223 90.7586 31.2324C90.2352 30.6387 89.9734 29.8535 89.9734 28.877V28.7363ZM90.6766 28.9297C90.6766 29.6875 90.8719 30.3105 91.2625 30.7988C91.657 31.2832 92.1727 31.5254 92.8094 31.5254C93.4422 31.5254 93.9539 31.2832 94.3445 30.7988C94.7391 30.3105 94.9363 29.668 94.9363 28.8711V28.7363C94.9363 28.252 94.8465 27.8086 94.6668 27.4062C94.4871 27.0039 94.2352 26.6934 93.9109 26.4746C93.5867 26.252 93.2156 26.1406 92.7977 26.1406C92.1727 26.1406 91.6629 26.3867 91.2684 26.8789C90.8738 27.3672 90.6766 28.0078 90.6766 28.8008V28.9297ZM101.668 31.4082H105.787V32H100.8V31.4844L104.644 26.2637H100.918V25.6602H105.529V26.1816L101.668 31.4082ZM111.643 32C111.572 31.8008 111.527 31.5059 111.508 31.1152C111.262 31.4355 110.947 31.6836 110.564 31.8594C110.186 32.0312 109.783 32.1172 109.357 32.1172C108.748 32.1172 108.254 31.9473 107.875 31.6074C107.5 31.2676 107.312 30.8379 107.312 30.3184C107.312 29.7012 107.568 29.2129 108.08 28.8535C108.596 28.4941 109.312 28.3145 110.23 28.3145H111.502V27.5938C111.502 27.1406 111.361 26.7852 111.08 26.5273C110.803 26.2656 110.396 26.1348 109.861 26.1348C109.373 26.1348 108.969 26.2598 108.648 26.5098C108.328 26.7598 108.168 27.0605 108.168 27.4121L107.465 27.4062C107.465 26.9023 107.699 26.4668 108.168 26.0996C108.637 25.7285 109.213 25.543 109.896 25.543C110.604 25.543 111.16 25.7207 111.566 26.0762C111.977 26.4277 112.188 26.9199 112.199 27.5527V30.5527C112.199 31.166 112.264 31.625 112.393 31.9297V32H111.643ZM109.439 31.4961C109.908 31.4961 110.326 31.3828 110.693 31.1562C111.064 30.9297 111.334 30.627 111.502 30.248V28.8535H110.248C109.549 28.8613 109.002 28.9902 108.607 29.2402C108.213 29.4863 108.016 29.8262 108.016 30.2598C108.016 30.6152 108.146 30.9102 108.408 31.1445C108.674 31.3789 109.018 31.4961 109.439 31.4961ZM120.167 31.0332L122.095 25.6602H122.815L120.448 32H119.88L117.501 25.6602H118.221L120.167 31.0332ZM128.478 32C128.407 31.8008 128.362 31.5059 128.343 31.1152C128.097 31.4355 127.782 31.6836 127.4 31.8594C127.021 32.0312 126.618 32.1172 126.193 32.1172C125.583 32.1172 125.089 31.9473 124.71 31.6074C124.335 31.2676 124.148 30.8379 124.148 30.3184C124.148 29.7012 124.404 29.2129 124.915 28.8535C125.431 28.4941 126.148 28.3145 127.066 28.3145H128.337V27.5938C128.337 27.1406 128.196 26.7852 127.915 26.5273C127.638 26.2656 127.232 26.1348 126.696 26.1348C126.208 26.1348 125.804 26.2598 125.484 26.5098C125.163 26.7598 125.003 27.0605 125.003 27.4121L124.3 27.4062C124.3 26.9023 124.534 26.4668 125.003 26.0996C125.472 25.7285 126.048 25.543 126.732 25.543C127.439 25.543 127.995 25.7207 128.402 26.0762C128.812 26.4277 129.023 26.9199 129.034 27.5527V30.5527C129.034 31.166 129.099 31.625 129.228 31.9297V32H128.478ZM126.275 31.4961C126.743 31.4961 127.161 31.3828 127.529 31.1562C127.9 30.9297 128.169 30.627 128.337 30.248V28.8535H127.083C126.384 28.8613 125.837 28.9902 125.443 29.2402C125.048 29.4863 124.851 29.8262 124.851 30.2598C124.851 30.6152 124.982 30.9102 125.243 31.1445C125.509 31.3789 125.853 31.4961 126.275 31.4961ZM135.306 30.3887C135.306 30.041 135.166 29.7617 134.884 29.5508C134.607 29.3398 134.187 29.1758 133.625 29.0586C133.062 28.9375 132.625 28.8008 132.312 28.6484C132.004 28.4922 131.773 28.3027 131.621 28.0801C131.472 27.8574 131.398 27.5879 131.398 27.2715C131.398 26.7715 131.607 26.3594 132.025 26.0352C132.443 25.707 132.978 25.543 133.63 25.543C134.338 25.543 134.904 25.7188 135.33 26.0703C135.759 26.418 135.974 26.873 135.974 27.4355H135.271C135.271 27.0645 135.115 26.7559 134.802 26.5098C134.494 26.2637 134.103 26.1406 133.63 26.1406C133.17 26.1406 132.798 26.2441 132.517 26.4512C132.24 26.6543 132.101 26.9199 132.101 27.248C132.101 27.5645 132.216 27.8105 132.447 27.9863C132.681 28.1582 133.105 28.3164 133.718 28.4609C134.336 28.6055 134.796 28.7598 135.101 28.9238C135.41 29.0879 135.638 29.2852 135.787 29.5156C135.935 29.7461 136.009 30.0254 136.009 30.3535C136.009 30.8887 135.793 31.3164 135.359 31.6367C134.929 31.957 134.367 32.1172 133.671 32.1172C132.933 32.1172 132.334 31.9395 131.873 31.584C131.416 31.2246 131.187 30.7715 131.187 30.2246H131.89C131.918 30.6348 132.089 30.9551 132.406 31.1855C132.726 31.4121 133.148 31.5254 133.671 31.5254C134.16 31.5254 134.554 31.418 134.855 31.2031C135.156 30.9883 135.306 30.7168 135.306 30.3887ZM146.942 32H141.598V31.4609L144.522 28.1445C145.006 27.5859 145.342 27.125 145.53 26.7617C145.717 26.3984 145.811 26.0449 145.811 25.7012C145.811 25.1621 145.653 24.7363 145.336 24.4238C145.02 24.1074 144.584 23.9492 144.03 23.9492C143.455 23.9492 142.991 24.1328 142.635 24.5C142.284 24.8672 142.108 25.3438 142.108 25.9297H141.411C141.411 25.4492 141.518 25.0117 141.733 24.6172C141.952 24.2227 142.26 23.9141 142.659 23.6914C143.061 23.4648 143.518 23.3516 144.03 23.3516C144.811 23.3516 145.42 23.5566 145.858 23.9668C146.299 24.377 146.52 24.9355 146.52 25.6426C146.52 26.041 146.395 26.4766 146.145 26.9492C145.899 27.4219 145.463 28.0117 144.838 28.7188L142.459 31.4082H146.942V32ZM153.999 28.4434C153.999 29.6465 153.778 30.5605 153.337 31.1855C152.895 31.8066 152.245 32.1172 151.386 32.1172C150.542 32.1172 149.895 31.8125 149.446 31.2031C148.997 30.5898 148.766 29.6992 148.755 28.5312V27.002C148.755 25.8027 148.977 24.8945 149.423 24.2773C149.868 23.6602 150.518 23.3516 151.374 23.3516C152.218 23.3516 152.862 23.6504 153.307 24.248C153.753 24.8418 153.983 25.7188 153.999 26.8789V28.4434ZM153.296 26.9141C153.296 25.9375 153.136 25.1992 152.815 24.6992C152.499 24.1992 152.018 23.9492 151.374 23.9492C150.741 23.9492 150.264 24.1934 149.944 24.6816C149.624 25.1699 149.46 25.8906 149.452 26.8438V28.5195C149.452 29.4922 149.616 30.2363 149.944 30.752C150.276 31.2676 150.757 31.5254 151.386 31.5254C152.011 31.5254 152.483 31.2734 152.804 30.7695C153.128 30.2656 153.292 29.5273 153.296 28.5547V26.9141ZM159.459 28.7715C159.459 27.7793 159.677 26.9941 160.115 26.416C160.556 25.834 161.154 25.543 161.908 25.543C162.771 25.543 163.427 25.8867 163.877 26.5742L163.912 25.6602H164.568V31.8711C164.568 32.6875 164.339 33.334 163.882 33.8105C163.425 34.2871 162.806 34.5254 162.025 34.5254C161.584 34.5254 161.162 34.4258 160.759 34.2266C160.361 34.0312 160.046 33.7695 159.816 33.4414L160.209 33.0195C160.705 33.6289 161.295 33.9336 161.978 33.9336C162.564 33.9336 163.021 33.7598 163.349 33.4121C163.677 33.0684 163.847 32.5898 163.859 31.9766V31.1797C163.41 31.8047 162.755 32.1172 161.896 32.1172C161.162 32.1172 160.572 31.8242 160.127 31.2383C159.681 30.6523 159.459 29.8613 159.459 28.8652V28.7715ZM160.168 28.8945C160.168 29.7031 160.33 30.3418 160.654 30.8105C160.978 31.2754 161.435 31.5078 162.025 31.5078C162.888 31.5078 163.5 31.1211 163.859 30.3477V27.4004C163.695 26.9941 163.459 26.6855 163.15 26.4746C162.841 26.2598 162.47 26.1523 162.037 26.1523C161.447 26.1523 160.988 26.3848 160.66 26.8496C160.332 27.3105 160.168 27.9922 160.168 28.8945ZM166.609 28.7363C166.609 28.127 166.727 27.5781 166.961 27.0898C167.199 26.6016 167.533 26.2227 167.963 25.9531C168.396 25.6797 168.887 25.543 169.434 25.543C170.277 25.543 170.961 25.8398 171.484 26.4336C172.008 27.0234 172.27 27.8066 172.27 28.7832V28.9297C172.27 29.543 172.15 30.0957 171.912 30.5879C171.678 31.0762 171.346 31.4531 170.916 31.7188C170.486 31.9844 169.996 32.1172 169.445 32.1172C168.605 32.1172 167.922 31.8223 167.395 31.2324C166.871 30.6387 166.609 29.8535 166.609 28.877V28.7363ZM167.312 28.9297C167.312 29.6875 167.508 30.3105 167.898 30.7988C168.293 31.2832 168.809 31.5254 169.445 31.5254C170.078 31.5254 170.59 31.2832 170.98 30.7988C171.375 30.3105 171.572 29.668 171.572 28.8711V28.7363C171.572 28.252 171.482 27.8086 171.303 27.4062C171.123 27.0039 170.871 26.6934 170.547 26.4746C170.223 26.252 169.852 26.1406 169.434 26.1406C168.809 26.1406 168.299 26.3867 167.904 26.8789C167.51 27.3672 167.312 28.0078 167.312 28.8008V28.9297ZM174.041 28.7715C174.041 27.7871 174.26 27.0039 174.698 26.4219C175.139 25.8359 175.737 25.543 176.491 25.543C177.346 25.543 177.998 25.8809 178.448 26.5566V23H179.145V32H178.489L178.459 31.1562C178.01 31.7969 177.35 32.1172 176.479 32.1172C175.748 32.1172 175.159 31.8242 174.709 31.2383C174.264 30.6484 174.041 29.8535 174.041 28.8535V28.7715ZM174.75 28.8945C174.75 29.7031 174.912 30.3418 175.237 30.8105C175.561 31.2754 176.018 31.5078 176.608 31.5078C177.471 31.5078 178.084 31.127 178.448 30.3652V27.3887C178.084 26.5645 177.475 26.1523 176.62 26.1523C176.03 26.1523 175.571 26.3848 175.243 26.8496C174.914 27.3105 174.75 27.9922 174.75 28.8945ZM182.376 32H181.673V25.6602H182.376V32ZM181.55 23.8262C181.55 23.6934 181.593 23.582 181.679 23.4922C181.764 23.3984 181.882 23.3516 182.03 23.3516C182.179 23.3516 182.296 23.3984 182.382 23.4922C182.471 23.582 182.516 23.6934 182.516 23.8262C182.516 23.959 182.471 24.0703 182.382 24.1602C182.296 24.25 182.179 24.2949 182.03 24.2949C181.882 24.2949 181.764 24.25 181.679 24.1602C181.593 24.0703 181.55 23.959 181.55 23.8262ZM185.554 25.6602L185.577 26.7441C185.816 26.3535 186.112 26.0566 186.468 25.8535C186.823 25.6465 187.216 25.543 187.646 25.543C188.325 25.543 188.831 25.7344 189.163 26.1172C189.495 26.5 189.663 27.0742 189.667 27.8398V32H188.97V27.834C188.966 27.2676 188.845 26.8457 188.607 26.5684C188.372 26.291 187.995 26.1523 187.476 26.1523C187.042 26.1523 186.657 26.2891 186.321 26.5625C185.989 26.832 185.743 27.1973 185.583 27.6582V32H184.886V25.6602H185.554ZM196.086 32C196.015 31.8008 195.97 31.5059 195.951 31.1152C195.705 31.4355 195.39 31.6836 195.007 31.8594C194.629 32.0312 194.226 32.1172 193.8 32.1172C193.191 32.1172 192.697 31.9473 192.318 31.6074C191.943 31.2676 191.755 30.8379 191.755 30.3184C191.755 29.7012 192.011 29.2129 192.523 28.8535C193.039 28.4941 193.755 28.3145 194.673 28.3145H195.945V27.5938C195.945 27.1406 195.804 26.7852 195.523 26.5273C195.246 26.2656 194.839 26.1348 194.304 26.1348C193.816 26.1348 193.412 26.2598 193.091 26.5098C192.771 26.7598 192.611 27.0605 192.611 27.4121L191.908 27.4062C191.908 26.9023 192.142 26.4668 192.611 26.0996C193.08 25.7285 193.656 25.543 194.339 25.543C195.046 25.543 195.603 25.7207 196.009 26.0762C196.42 26.4277 196.63 26.9199 196.642 27.5527V30.5527C196.642 31.166 196.707 31.625 196.836 31.9297V32H196.086ZM193.882 31.4961C194.351 31.4961 194.769 31.3828 195.136 31.1562C195.507 30.9297 195.777 30.627 195.945 30.248V28.8535H194.691C193.992 28.8613 193.445 28.9902 193.05 29.2402C192.656 29.4863 192.459 29.8262 192.459 30.2598C192.459 30.6152 192.589 30.9102 192.851 31.1445C193.117 31.3789 193.461 31.4961 193.882 31.4961Z" fill="#7E7E7E"/>
<path d="M47.2871 17L49.1328 6.33594L52.5239 6.34326C53.8618 6.34814 54.8604 6.60205 55.5195 7.10498C56.1787 7.60791 56.479 8.31348 56.4204 9.22168C56.3472 10.3447 55.7319 11.1406 54.5747 11.6094C54.9897 11.7559 55.312 12.022 55.5415 12.4077C55.7759 12.7886 55.876 13.2476 55.8418 13.7847C55.7734 14.8149 55.3657 15.6084 54.6187 16.165C53.8765 16.7217 52.8584 17 51.5645 17H47.2871ZM50.583 12.4663L50.1362 15.0225L51.6377 15.0298C52.1064 15.0298 52.4971 14.915 52.8096 14.6855C53.1221 14.4512 53.3076 14.1411 53.3662 13.7554C53.5029 12.9399 53.1904 12.5127 52.4287 12.4736L50.583 12.4663ZM50.8687 10.7817L52.0479 10.7891C53.1367 10.7646 53.7471 10.3472 53.8789 9.53662C53.9961 8.73584 53.5811 8.33301 52.6338 8.32812L51.3008 8.3208L50.8687 10.7817ZM66.9644 12.481H63.0459L62.5991 15.0225H67.2354L66.8911 17H59.75L61.5957 6.33594H68.7515L68.4072 8.3208H63.7637L63.3682 10.5693H67.2939L66.9644 12.481ZM75.3696 17.1465C74.2612 17.1221 73.3726 16.7559 72.7036 16.0479C72.0347 15.3398 71.6562 14.3926 71.5684 13.2061C71.5195 12.6201 71.5659 11.9316 71.7075 11.1406C71.8491 10.3447 72.1006 9.6123 72.4619 8.94336C72.8232 8.27441 73.2749 7.71777 73.8169 7.27344C74.7251 6.52637 75.77 6.16504 76.9517 6.18945C77.6792 6.2041 78.314 6.37256 78.856 6.69482C79.4028 7.01221 79.8398 7.47119 80.167 8.07178C80.4941 8.67236 80.6846 9.35596 80.7383 10.1226C80.7773 10.6646 80.7432 11.2822 80.6357 11.9756C80.5332 12.6641 80.3403 13.3232 80.0571 13.9531C79.7788 14.5781 79.4175 15.1299 78.9731 15.6084C78.5288 16.0869 78.0039 16.4678 77.3984 16.751C76.7979 17.0293 76.1216 17.1611 75.3696 17.1465ZM78.2261 10.1006C78.1772 8.87988 77.7036 8.24512 76.8052 8.19629C76.1118 8.16211 75.5381 8.43799 75.084 9.02393C74.6299 9.60498 74.3296 10.4644 74.1831 11.6021C74.0903 12.3052 74.0562 12.8496 74.0806 13.2354C74.1294 14.4756 74.6079 15.1128 75.5161 15.147C76.1118 15.1763 76.6245 14.9639 77.0542 14.5098C77.4839 14.0508 77.7939 13.3867 77.9844 12.5176C78.1748 11.6436 78.2554 10.8379 78.2261 10.1006ZM89.3047 13.3599H85.02L85.3496 11.4482H89.6343L89.3047 13.3599ZM102.551 15.689C102.151 16.1577 101.567 16.5215 100.801 16.7803C100.034 17.0342 99.1846 17.1538 98.252 17.1392C97.3584 17.1294 96.604 16.9048 95.9888 16.4653C95.3735 16.0259 94.9341 15.4131 94.6704 14.627C94.4067 13.8408 94.3359 12.9546 94.458 11.9683L94.5166 11.5288C94.7412 9.87354 95.3223 8.5625 96.2598 7.5957C97.2021 6.62891 98.3545 6.15771 99.7168 6.18213C100.908 6.20166 101.824 6.52148 102.463 7.1416C103.103 7.76172 103.459 8.65771 103.533 9.82959L101.13 9.82227C101.096 9.25098 100.955 8.8335 100.706 8.56982C100.461 8.30615 100.112 8.16699 99.6582 8.15234C98.9844 8.12793 98.4277 8.39404 97.9883 8.95068C97.5488 9.50244 97.2485 10.2935 97.0874 11.3237C96.9507 12.2026 96.9019 12.8862 96.9409 13.3745C97.0142 14.5513 97.5439 15.147 98.5303 15.1616C99.126 15.1714 99.6484 15.0273 100.098 14.7295L100.427 13.0669H98.6914L98.999 11.3018H103.24L102.551 15.689ZM111.257 13.2354H109.865L109.206 17H106.701L108.547 6.33594L112.312 6.34326C113.518 6.34326 114.445 6.62646 115.095 7.19287C115.749 7.75439 116.042 8.52344 115.974 9.5C115.92 10.2715 115.698 10.9111 115.307 11.4189C114.917 11.9219 114.37 12.3198 113.667 12.6128L115.102 16.8755V17H112.429L111.257 13.2354ZM110.202 11.2505L111.667 11.2651C112.067 11.2651 112.414 11.1675 112.707 10.9722C113.005 10.7769 113.217 10.5107 113.344 10.1738C113.471 9.83203 113.508 9.50244 113.454 9.18506C113.356 8.64307 113.01 8.35742 112.414 8.32812L110.715 8.3208L110.202 11.2505ZM125.529 15.0078H122.123L121.178 17H118.417L124.064 6.33594H126.422L128.393 17H125.785L125.529 15.0078ZM123.061 13.0229H125.272L124.804 9.34619L123.061 13.0229ZM132.477 17L133.282 12.3491H132.066L132.308 10.9502H133.524L134.322 6.33594L137.457 6.34326C138.38 6.34326 139.186 6.5874 139.874 7.07568C140.562 7.55908 141.051 8.2207 141.339 9.06055C141.588 9.79785 141.664 10.5938 141.566 11.4482L141.515 11.895C141.383 12.8521 141.065 13.7188 140.562 14.4951C140.06 15.2715 139.413 15.8818 138.622 16.3262C137.831 16.7656 136.976 16.9902 136.058 17H132.477ZM137.267 12.3491H135.787L135.326 15.0225L136.058 15.0298C136.937 15.0298 137.638 14.6831 138.16 13.9897C138.688 13.2915 138.99 12.21 139.068 10.7451C139.103 9.96387 138.98 9.37061 138.702 8.96533C138.424 8.56006 138.006 8.34766 137.45 8.32812L136.49 8.3208L136.029 10.9502H137.516L137.267 12.3491ZM152.168 12.481H148.25L147.803 15.0225H152.439L152.095 17H144.954L146.8 6.33594H153.956L153.611 8.3208H148.968L148.572 10.5693H152.498L152.168 12.481ZM160.691 14.0703L163.958 6.33594H166.829L161.672 17H158.933L157.146 6.33594H159.856L160.691 14.0703ZM171.528 17H169.023L170.876 6.33594H173.374L171.528 17ZM184.972 17H182.548L179.999 10.269L178.827 17H176.322L178.168 6.33594H180.614L183.156 13.0669L184.32 6.33594H186.825L184.972 17ZM196.014 15.0078H192.608L191.664 17H188.902L194.549 6.33594H196.908L198.878 17H196.271L196.014 15.0078ZM193.546 13.0229H195.758L195.289 9.34619L193.546 13.0229Z" fill="#DDA643"/>
</svg>
