<svg width="91" height="90" viewBox="0 0 91 90" fill="none" xmlns="http://www.w3.org/2000/svg">
<g clip-path="url(#clip0)">
<path d="M75.5636 35.7363V87.1432C75.5636 88.714 73.657 90.0002 71.3262 90.0002H19.6727C17.3418 90.0002 15.4353 88.7142 15.4353 87.1432V35.7363L44.9716 17.2361L75.5636 35.7363Z" fill="#FF9811"/>
<path d="M75.5635 40.516V87.143C75.5635 88.7138 73.657 90 71.3261 90H22.9541V49.0814C22.9541 46.5815 24.2406 44.2575 26.3593 42.9303L52.4903 26.563L75.5635 40.516Z" fill="#FFA733"/>
<path d="M71.6204 3.68771H59.527V29.324H71.6204V3.68771Z" fill="#EE8700"/>
<path d="M79.7633 29.1714L48.4988 10.3296C47.5747 9.77272 46.5536 9.50658 45.5429 9.50236C45.5283 9.50219 45.5139 9.50166 45.4993 9.50149C45.4847 9.50149 45.4703 9.50219 45.4557 9.50236C44.4449 9.50658 43.4237 9.77272 42.4997 10.3296L33.9937 15.4559C34.7615 13.7638 34.7119 11.7316 33.6799 10.0329L33.3516 9.49059C33.2754 9.36543 33.1956 9.24572 33.1121 9.12953C31.3689 6.68793 27.9806 5.96248 25.3757 7.54416L16.2298 13.0985C13.5016 14.7565 12.6255 18.3443 14.2833 21.0744L14.6117 21.6167C15.624 23.2822 17.3565 24.2576 19.1737 24.3875L11.2351 29.1718C8.93642 30.5571 7.82373 33.1852 8.23154 35.6911V55.7754C8.23154 58.9679 10.8436 61.58 14.0362 61.58H15.2145C18.407 61.58 21.0191 58.9679 21.0191 55.7754V38.2057L45.195 23.6357C45.382 23.5229 45.6162 23.5229 45.8032 23.6357L70.0331 38.2382V44.3788C70.0331 47.5713 72.6452 50.1834 75.8377 50.1834H77.0161C80.2087 50.1834 82.8208 47.5713 82.8208 44.3788V35.284C83.0556 32.866 81.9048 30.462 79.7633 29.1714Z" fill="#D1E7F8"/>
<path d="M56.655 63.8504V89.9999H34.3436V63.8504C34.3436 60.6578 36.9557 58.0457 40.1483 58.0457H50.8505C54.0429 58.0457 56.655 60.6578 56.655 63.8504Z" fill="#CC7400"/>
<path d="M56.6551 63.8504V89.9999H41.8624V63.8504C41.8624 60.6578 44.4745 58.0457 47.6671 58.0457H50.8505C54.043 58.0457 56.6551 60.6578 56.6551 63.8504Z" fill="#EE8700"/>
<path d="M50.0039 75.5189C51.1226 75.5189 52.0296 74.612 52.0296 73.4932C52.0296 72.3745 51.1226 71.4675 50.0039 71.4675C48.8851 71.4675 47.9781 72.3745 47.9781 73.4932C47.9781 74.612 48.8851 75.5189 50.0039 75.5189Z" fill="#884D00"/>
<path d="M53.6531 43.6776C52.9728 46.7975 50.6293 49.1266 47.7542 49.9356C46.4809 50.2947 45.1059 50.3546 43.7237 50.0535C39.2197 49.0721 36.3664 44.628 37.3459 40.124C38.3273 35.6219 42.7731 32.7667 47.2754 33.7481C47.4368 33.7825 47.5946 33.8224 47.7507 33.866C51.9788 35.0469 54.5979 39.3368 53.6531 43.6776Z" fill="#B3D8F4"/>
<path d="M53.653 43.6776C52.9728 46.7975 50.6293 49.1266 47.7542 49.9356C43.5277 48.7564 40.9049 44.4684 41.8516 40.124C42.5319 37.004 44.8754 34.6749 47.7505 33.866C51.9787 35.0469 54.5979 39.3368 53.653 43.6776Z" fill="#D1E7F8"/>
<path d="M47.5651 32.4192C46.8824 32.2705 46.1847 32.1951 45.4911 32.1951C43.5833 32.1951 41.7306 32.7556 40.1327 33.8158C39.5068 34.2311 39.3361 35.0756 39.7515 35.7016C40.1668 36.3277 41.0113 36.4982 41.6373 36.0828C42.404 35.5739 43.2527 35.2291 44.1386 35.0529V40.178H38.7346C38.7826 39.9887 38.8358 39.8006 38.8988 39.6176C39.1436 38.9071 38.766 38.133 38.0557 37.8884C37.3443 37.6439 36.5709 38.0215 36.3265 38.7317C36.2028 39.0904 36.0989 39.4617 36.0175 39.8357C35.8688 40.519 35.7936 41.2165 35.7936 41.9093C35.7936 46.4342 39.0069 50.4188 43.4339 51.3832C44.1166 51.5319 44.8143 51.6073 45.508 51.6073C50.0327 51.6073 54.0174 48.394 54.9819 43.9664C55.1306 43.2832 55.2058 42.5857 55.2058 41.8929C55.2055 37.3681 51.9922 33.3839 47.5651 32.4192ZM44.139 48.7487C44.0971 48.7405 44.0546 48.7338 44.0129 48.7248C41.1546 48.1019 39.0004 45.7306 38.5873 42.8989H44.139V48.7487ZM46.8599 35.0536C46.9017 35.0619 46.9443 35.0686 46.9859 35.0775C49.5963 35.6464 51.6193 37.6736 52.2655 40.1778H46.8597V35.0536H46.8599ZM52.3228 43.3878C51.7267 46.1231 49.5291 48.2133 46.8597 48.7503V42.8987H52.4093C52.3856 43.0626 52.3582 43.2259 52.3228 43.3878Z" fill="#CC7400"/>
<path d="M21.0186 48.8818V55.7747C21.0186 58.9672 18.4064 61.5793 15.2139 61.5793H14.0367C10.8442 61.5793 8.23206 58.9672 8.23206 55.7747V48.8818C8.23206 52.0743 10.8442 54.6864 14.0367 54.6864H15.2139C18.4064 54.6864 21.0186 52.0743 21.0186 48.8818Z" fill="#96C8EF"/>
<path d="M82.8209 37.4848V44.3777C82.8209 47.5703 80.2088 50.1824 77.0163 50.1824H75.8371C72.6446 50.1824 70.0325 47.5703 70.0325 44.3777V37.4848C70.0325 40.6773 72.6446 43.2895 75.8371 43.2895H77.0163C80.2088 43.2895 82.8209 40.6773 82.8209 37.4848Z" fill="#96C8EF"/>
<path d="M71.62 3.68771V19.1097L65.654 15.3603C64.738 14.7853 64.1829 13.7786 64.1829 12.6974V3.68771H71.62Z" fill="#FFA733"/>
<path d="M75.3693 1.51102V5.56154C75.3693 6.39422 74.689 7.07432 73.8565 7.07432H57.2898C56.4591 7.07432 55.7788 6.39404 55.7788 5.56154V1.51102C55.7788 0.680273 56.4591 0 57.2898 0H73.8565C74.689 0 75.3693 0.680273 75.3693 1.51102Z" fill="#AA6100"/>
<path d="M75.3693 1.51102V5.56154C75.3693 6.39422 74.689 7.07432 73.8565 7.07432H61.7486C60.9178 7.07432 60.2375 6.39404 60.2375 5.56154V1.51102C60.2375 0.680273 60.9178 0 61.7486 0H73.8565C74.689 0 75.3693 0.680273 75.3693 1.51102Z" fill="#CC7400"/>
</g>
<defs>
<clipPath id="clip0">
<rect x="0.5" width="90" height="90" fill="white"/>
</clipPath>
</defs>
</svg>
