<svg width="91" height="90" viewBox="0 0 91 90" fill="none" xmlns="http://www.w3.org/2000/svg">
<g clip-path="url(#clip0)">
<path d="M45.4203 71.4685C65.1558 71.4685 81.1545 55.4697 81.1545 35.7343C81.1545 15.9988 65.1558 0 45.4203 0C25.6848 0 9.68604 15.9988 9.68604 35.7343C9.68604 55.4697 25.6848 71.4685 45.4203 71.4685Z" fill="#FFD15C"/>
<path d="M16.4715 56.6399L4.17627 77.9529L18.5267 77.191L25.0464 90.0001L36.4204 70.2816C28.2708 68.1733 21.2727 63.2658 16.4715 56.6399Z" fill="#40596B"/>
<path d="M74.4401 56.5335C69.6744 63.1772 62.6763 68.1024 54.5444 70.2461L65.9539 90L72.4736 77.191L86.824 77.9528L74.4401 56.5335Z" fill="#40596B"/>
<path d="M45.4204 61.6358C59.7254 61.6358 71.3219 50.0393 71.3219 35.7342C71.3219 21.4292 59.7254 9.83267 45.4204 9.83267C31.1153 9.83267 19.5188 21.4292 19.5188 35.7342C19.5188 50.0393 31.1153 61.6358 45.4204 61.6358Z" fill="#F8B64C"/>
<path d="M63.1723 32.9351C63.9696 32.1555 63.5266 30.7914 62.4282 30.6319L52.2058 29.1437C51.7629 29.0729 51.3908 28.8071 51.1959 28.3996L46.6251 19.1339C46.129 18.124 44.694 18.124 44.1979 19.1339L39.6448 28.3996C39.4499 28.7894 39.0601 29.0729 38.6349 29.1437L28.4125 30.6319C27.314 30.7914 26.8711 32.1555 27.6684 32.9351L35.0562 40.1457C35.3751 40.4646 35.5168 40.9075 35.4459 41.3327L33.7097 51.502C33.5148 52.6004 34.6841 53.4508 35.6763 52.9193L44.818 48.1181C45.2077 47.9055 45.6861 47.9055 46.0759 48.1181L55.2176 52.9193C56.2097 53.4331 57.3613 52.6004 57.1841 51.502L55.4302 41.3327C55.3593 40.8898 55.5011 40.4469 55.82 40.1457L63.1723 32.9351Z" fill="white"/>
</g>
<defs>
<clipPath id="clip0">
<rect x="0.5" width="90" height="90" fill="white"/>
</clipPath>
</defs>
</svg>
