<svg width="91" height="90" viewBox="0 0 91 90" fill="none" xmlns="http://www.w3.org/2000/svg">
<g clip-path="url(#clip0)">
<path fill-rule="evenodd" clip-rule="evenodd" d="M50.8104 29.2556L27.7162 26.879L1.25965 29.2556V35.4683C1.25965 36.5592 1.18269 36.4312 1.71128 37.3788L9.00545 50.5365L27.5465 53.8709L49.8758 50.5365C50.3839 50.4597 50.81 50.1166 50.81 49.6043V29.2556H50.8104Z" fill="#CECECE"/>
<path fill-rule="evenodd" clip-rule="evenodd" d="M31.8124 22.4641H2.06041C1.61892 22.4641 1.25964 22.8278 1.25964 23.2631V29.2556H48.8287L52.6683 19.432V13.5882C52.6683 13.0708 52.2422 12.6458 51.7237 12.6458H37.7153C37.2738 12.6458 37.0891 13.0402 36.9145 13.4448L33.2904 21.6652C33.1111 22.0699 33.0854 22.4641 31.8124 22.4641Z" fill="#E8EAEA"/>
<path fill-rule="evenodd" clip-rule="evenodd" d="M47.8895 50.5365H9.0057H5.94642C5.13533 50.5365 4.46296 51.2075 4.46296 52.0218L4.45264 60.0271L42.2276 65.2462L84.9921 60.017V38.4595C84.9921 36.4978 85.1667 36.9639 83.7191 35.6271L67.6471 20.7945C66.1226 19.386 66.5948 19.4322 64.5364 19.4322H52.6686H50.1071C49.4039 19.4322 48.829 20.011 48.829 20.7076V29.2558V49.6045C48.829 50.1166 48.408 50.5365 47.8895 50.5365Z" fill="#FDB440"/>
<path fill-rule="evenodd" clip-rule="evenodd" d="M83.719 35.6271L67.647 20.7945C66.1225 19.386 66.5947 19.4322 64.5363 19.4322H60.9688L80.5364 37.5325C81.9891 38.8693 81.8095 38.4032 81.8095 40.3649L81.7991 60.0171H82.6769H84.9919V38.4595C84.992 36.4978 85.1666 36.9639 83.719 35.6271Z" fill="#FE9737"/>
<path fill-rule="evenodd" clip-rule="evenodd" d="M52.6685 16.4052H47.7458C46.0058 16.4052 45.3948 17.9929 45.3948 18.6946V26.0239V26.2287V28.6975V29.2558H48.8289V29.051V20.7076C48.8289 20.0109 49.4039 19.4322 50.107 19.4322H52.6685V16.4052Z" fill="#D4D6D8"/>
<path fill-rule="evenodd" clip-rule="evenodd" d="M45.3948 46.0039V50.5367H47.8895C48.4079 50.5367 48.8288 50.1168 48.8288 49.6045V46.0039V29.2558H45.3947V40.165V46.0039H45.3948Z" fill="#BAAFB9"/>
<path fill-rule="evenodd" clip-rule="evenodd" d="M84.9921 60.017H75.4137L75.424 60.0273H12.7836H4.45258C2.2761 60.0273 0.5 61.8045 0.5 63.9761C0.5 66.1426 2.2761 67.9198 4.45258 67.9198L9.84243 67.9147L9.83736 67.9044H78.3652H86.5474C88.7188 67.9044 90.5 66.1323 90.5 63.9607C90.5 61.7941 88.7188 60.017 86.5474 60.017H84.9921Z" fill="#CECECE"/>
<path fill-rule="evenodd" clip-rule="evenodd" d="M19.9958 57.0361C17.1778 57.0361 14.6266 58.1834 12.7837 60.0273C10.946 61.866 9.81677 64.3962 9.81677 67.1977C9.81677 67.4384 9.82184 67.6792 9.84249 67.9148C10.2121 73.1903 14.6163 77.3543 19.9958 77.3543C25.3754 77.3543 29.7848 73.1903 30.1492 67.9148C30.1696 67.6792 30.1749 67.4386 30.1749 67.1977C30.1749 64.3962 29.0404 61.8609 27.208 60.0273C25.3652 58.1784 22.8139 57.0361 19.9958 57.0361Z" fill="#737A93"/>
<path fill-rule="evenodd" clip-rule="evenodd" d="M68.2066 57.0361C65.3936 57.0361 62.8476 58.1782 61.0048 60.022C59.1621 61.8555 58.0276 64.396 58.0276 67.1976C58.0276 67.4382 58.0379 67.6738 58.0533 67.9094C58.4178 73.1848 62.8271 77.354 68.2066 77.354C73.5914 77.354 78.0007 73.1848 78.3652 67.9043C78.3806 67.6738 78.3909 67.4332 78.3909 67.1976C78.3909 64.3909 77.2514 61.8555 75.4137 60.0168C73.5708 58.1784 71.0196 57.0361 68.2066 57.0361Z" fill="#737A93"/>
<path fill-rule="evenodd" clip-rule="evenodd" d="M23.9534 67.1978C23.9534 65.0159 22.1824 63.2488 19.9957 63.2488C17.8091 63.2488 16.0381 65.0159 16.0381 67.1978C16.0381 69.3797 17.8091 71.1467 19.9957 71.1467C22.1824 71.1467 23.9534 69.3797 23.9534 67.1978Z" fill="#E8EAEA"/>
<path fill-rule="evenodd" clip-rule="evenodd" d="M72.1643 67.1978C72.1643 65.0159 70.3933 63.2488 68.2067 63.2488C66.02 63.2488 64.249 65.0159 64.249 67.1978C64.249 69.3797 66.02 71.1467 68.2067 71.1467C70.3933 71.1467 72.1643 69.3797 72.1643 67.1978Z" fill="#E8EAEA"/>
<path fill-rule="evenodd" clip-rule="evenodd" d="M27.2079 60.0273C25.3651 58.1784 22.8138 57.0361 19.9958 57.0361C19.467 57.0361 18.9435 57.077 18.4353 57.154C20.35 57.5893 22.0542 58.5574 23.394 59.8942C23.4351 59.9403 23.4813 59.9813 23.5224 60.0273C24.3335 60.8724 25.0008 61.8506 25.4832 62.9313C26.0478 64.1964 26.3609 65.5946 26.3609 67.0646C26.3609 67.3053 26.3506 67.5462 26.3352 67.7817C26.3352 67.8227 26.3302 67.8638 26.3249 67.9047C25.9399 72.6064 22.3519 76.3966 17.7423 77.1034C18.4661 77.2672 19.2207 77.3543 19.9958 77.3543C25.3753 77.3543 29.7847 73.1903 30.1543 67.9148C30.1543 67.9098 30.1543 67.9098 30.1543 67.9045C30.1697 67.6689 30.1748 67.4333 30.1748 67.1977C30.1748 65.8865 29.9283 64.6368 29.4767 63.4844C28.9633 62.1784 28.1832 61.0055 27.213 60.0273C27.2079 60.0273 27.2079 60.0273 27.2079 60.0273Z" fill="#606B82"/>
<path fill-rule="evenodd" clip-rule="evenodd" d="M75.4187 60.0273C73.576 58.1784 71.0246 57.0361 68.2066 57.0361C67.6778 57.0361 67.1543 57.077 66.6461 57.154C68.5608 57.5893 70.2702 58.5574 71.6048 59.8942C71.6459 59.9403 71.6921 59.9813 71.7383 60.0273C72.5494 60.8724 73.2114 61.8506 73.694 62.9313C74.2587 64.1964 74.5718 65.5946 74.5718 67.0646C74.5718 67.3053 74.5667 67.5462 74.546 67.7817C74.546 67.8227 74.541 67.8638 74.541 67.9047C74.1509 72.6064 70.5627 76.3966 65.9531 77.1034C66.6769 77.2672 67.4315 77.3543 68.2066 77.3543C73.5914 77.3543 77.9956 73.1903 78.3652 67.9148C78.3652 67.9098 78.3652 67.9098 78.3652 67.9045C78.3806 67.6689 78.3909 67.4333 78.3909 67.1977C78.3909 65.8865 78.1393 64.6368 77.6875 63.4844C77.1742 62.1784 76.3991 61.0055 75.4238 60.0273H75.4187Z" fill="#606B82"/>
<path fill-rule="evenodd" clip-rule="evenodd" d="M90.5001 63.9608C90.5001 61.7943 88.7189 60.0171 86.5475 60.0171H84.9921H83.1749H82.2972H80.4646H80.4697C81.0446 60.0222 81.5888 60.1502 82.0815 60.3706C83.4469 60.9955 84.4018 62.3732 84.4018 63.961C84.4018 66.1172 82.6411 67.8893 80.4852 67.9047H86.5475C88.7189 67.9045 90.5001 66.1324 90.5001 63.9608Z" fill="#BAAFB9"/>
<path fill-rule="evenodd" clip-rule="evenodd" d="M75.0748 38.4595L64.8136 28.2109C64.1001 27.5912 63.7767 27.4016 62.3137 27.4016H57.5603C56.9034 27.4016 56.3643 27.9395 56.3643 28.595V43.4839C56.3643 44.1395 56.9032 44.6773 57.5603 44.6773H74.9207C75.5777 44.6773 76.1115 44.1395 76.1115 43.4839V40.7745C76.1117 39.1714 76.2606 39.5556 75.0748 38.4595Z" fill="#6BD9E7"/>
<path fill-rule="evenodd" clip-rule="evenodd" d="M19.9957 71.1466C21.9412 71.1466 23.553 69.7484 23.8918 67.9046C23.9329 67.674 23.9534 67.4384 23.9534 67.1978C23.9534 65.0159 22.1824 63.2488 19.9957 63.2488C19.3695 63.2488 18.7741 63.3922 18.2454 63.6534C19.5543 64.2988 20.4526 65.6406 20.4526 67.1976C20.4526 67.4383 20.4322 67.6739 20.3911 67.9044C20.1652 69.1541 19.3491 70.1939 18.2454 70.7418C18.7741 70.9981 19.3695 71.1466 19.9957 71.1466Z" fill="#D4D6D8"/>
<path fill-rule="evenodd" clip-rule="evenodd" d="M72.1643 67.1978C72.1643 65.0159 70.3932 63.2488 68.2066 63.2488C67.5804 63.2488 66.985 63.3923 66.4562 63.6534C67.7651 64.2988 68.6686 65.6406 68.6686 67.1976C68.6686 67.4383 68.6429 67.6739 68.6018 67.9044C68.3759 69.1541 67.5598 70.1939 66.4561 70.7418C66.9848 70.9979 67.5802 71.1464 68.2064 71.1464C70.1519 71.1464 71.769 69.7482 72.1025 67.9044C72.1438 67.674 72.1643 67.4385 72.1643 67.1978Z" fill="#D4D6D8"/>
<path d="M84.9921 52.4019H79.6433C78.8931 52.4019 78.2852 51.7938 78.2852 51.0438C78.2852 50.2937 78.8931 49.6856 79.6433 49.6856H84.9921C85.7423 49.6856 86.3502 50.2937 86.3502 51.0438C86.3502 51.7938 85.7423 52.4019 84.9921 52.4019Z" fill="#6BD9E7"/>
<path d="M14.5135 44.586C13.7633 44.586 13.1554 43.978 13.1554 43.2279V35.0535C13.1554 34.3034 13.7633 33.6953 14.5135 33.6953C15.2638 33.6953 15.8717 34.3034 15.8717 35.0535V43.2279C15.8717 43.978 15.2636 44.586 14.5135 44.586Z" fill="#737A93"/>
<path d="M22.9783 44.586C22.228 44.586 21.6201 43.978 21.6201 43.2279V35.0535C21.6201 34.3034 22.228 33.6953 22.9783 33.6953C23.7285 33.6953 24.3364 34.3034 24.3364 35.0535V43.2279C24.3364 43.978 23.7283 44.586 22.9783 44.586Z" fill="#737A93"/>
<path d="M31.4377 44.586C30.6875 44.586 30.0796 43.978 30.0796 43.2279V35.0535C30.0796 34.3034 30.6875 33.6953 31.4377 33.6953C32.188 33.6953 32.7959 34.3034 32.7959 35.0535V43.2279C32.7959 43.978 32.1878 44.586 31.4377 44.586Z" fill="#737A93"/>
<path d="M39.8972 44.586C39.147 44.586 38.5391 43.978 38.5391 43.2279V35.0535C38.5391 34.3034 39.147 33.6953 39.8972 33.6953C40.6475 33.6953 41.2554 34.3034 41.2554 35.0535V43.2279C41.2554 43.978 40.6473 44.586 39.8972 44.586Z" fill="#737A93"/>
</g>
<defs>
<clipPath id="clip0">
<rect x="0.5" width="90" height="90" fill="white"/>
</clipPath>
</defs>
</svg>
